<svg 
 xmlns="http://www.w3.org/2000/svg"
 xmlns:xlink="http://www.w3.org/1999/xlink"
 width="29.81cm" height="5.856cm">
<path fill-rule="evenodd"  fill="rgb(0, 0, 0)"
 d="M-0.000,166.000 L-0.000,44.000 C2.275,33.502 7.873,24.020 16.000,17.000 C24.637,9.539 35.593,5.323 47.000,5.000 C53.542,5.070 59.993,6.426 66.000,9.000 C71.571,11.387 76.648,14.774 81.000,19.000 C84.623,14.810 89.033,11.409 94.000,9.000 C100.210,5.988 107.081,4.629 114.000,5.000 C126.120,4.706 137.929,8.939 147.000,17.000 C157.020,25.904 162.747,38.629 163.000,52.000 C152.667,52.000 142.333,52.000 132.000,52.000 C131.457,42.513 123.503,35.000 114.000,35.000 C104.497,35.000 96.543,42.513 96.000,52.000 C96.000,54.667 96.000,57.333 96.000,60.000 C108.587,55.103 122.668,55.283 135.000,61.000 C149.912,67.913 160.156,81.919 163.000,98.000 C163.000,120.333 163.000,143.667 163.000,166.000 L132.000,166.000 L132.000,98.000 C128.544,91.257 121.577,87.000 114.000,87.000 C106.423,87.000 99.456,91.257 96.000,98.000 C96.000,120.667 96.000,143.333 96.000,166.000 L66.000,166.000 L66.000,50.000 C63.745,41.137 54.532,35.301 46.000,36.000 C38.502,36.615 31.928,42.192 30.000,50.000 C30.000,88.667 30.000,127.333 30.000,166.000 L-0.000,166.000 Z"/>
<path fill-rule="evenodd"  fill="rgb(0, 0, 0)"
 d="M812.733,162.528 L812.733,2.485 L845.000,2.485 L845.000,162.528 L812.733,162.528 ZM783.557,97.462 C780.971,102.149 777.804,106.465 774.057,110.408 C770.308,114.353 766.111,117.774 761.465,120.676 L779.341,162.528 L745.050,162.528 L730.996,130.274 L694.906,130.497 L694.906,162.528 L662.639,162.528 L662.639,2.485 L727.174,2.485 C733.094,2.485 738.791,3.249 744.263,4.773 C749.733,6.299 754.849,8.456 759.610,11.246 C764.369,14.036 768.716,17.385 772.651,21.291 C776.586,25.197 779.959,29.532 782.770,34.293 C785.581,39.055 787.754,44.153 789.291,49.583 C790.826,55.015 791.596,60.670 791.596,66.547 C791.596,72.054 790.902,77.411 789.516,82.618 C788.128,87.827 786.143,92.774 783.557,97.462 ZM756.799,54.103 C755.112,50.197 752.808,46.793 749.884,43.891 C746.961,40.989 743.550,38.701 739.653,37.027 C735.755,35.353 731.595,34.516 727.174,34.516 L694.906,34.516 L694.906,98.578 L727.174,98.578 C731.595,98.578 735.755,97.741 739.653,96.067 C743.550,94.393 746.961,92.105 749.884,89.203 C752.808,86.301 755.112,82.897 756.799,78.991 C758.485,75.085 759.329,70.938 759.329,66.547 C759.329,62.158 758.485,58.009 756.799,54.103 ZM597.205,162.528 L565.050,162.528 L565.050,34.516 L516.593,34.516 L516.593,2.485 L645.550,2.485 L645.550,34.516 L597.205,34.516 L597.205,162.528 ZM402.926,57.172 L402.926,162.528 L370.659,162.528 L370.659,2.485 L405.175,2.485 L467.348,107.953 L467.348,2.485 L499.616,2.485 L499.616,162.528 L465.100,162.528 L402.926,57.172 ZM338.167,124.861 C334.569,130.999 330.221,136.599 325.125,141.658 C320.027,146.718 314.405,151.052 308.260,154.660 C302.114,158.269 295.480,161.060 288.360,163.030 C281.239,165.001 273.857,165.988 266.212,165.988 C258.566,165.988 251.202,165.001 244.119,163.030 C237.036,161.060 230.403,158.269 224.219,154.660 C218.035,151.052 212.395,146.718 207.298,141.658 C202.200,136.599 197.835,130.999 194.200,124.861 C190.564,118.723 187.753,112.138 185.768,105.107 C183.781,98.076 182.789,90.765 182.789,83.176 C182.789,75.587 183.781,68.259 185.768,61.190 C187.753,54.122 190.564,47.537 194.200,41.436 C197.835,35.336 202.200,29.755 207.298,24.695 C212.395,19.636 218.035,15.320 224.219,11.749 C230.403,8.177 237.036,5.406 244.119,3.434 C251.202,1.463 258.566,0.476 266.212,0.476 C273.857,0.476 281.239,1.463 288.360,3.434 C295.480,5.406 302.114,8.177 308.260,11.749 C314.405,15.320 320.027,19.636 325.125,24.695 C330.221,29.755 334.569,35.336 338.167,41.436 C341.764,47.537 344.556,54.122 346.543,61.190 C348.528,68.259 349.522,75.587 349.522,83.176 C349.522,90.765 348.528,98.076 346.543,105.107 C344.556,112.138 341.764,118.723 338.167,124.861 ZM313.432,63.366 C310.734,57.155 307.080,51.759 302.470,47.183 C297.861,42.608 292.425,38.980 286.168,36.302 C279.909,33.623 273.256,32.284 266.212,32.284 C259.090,32.284 252.420,33.623 246.199,36.302 C239.977,38.980 234.543,42.608 229.897,47.183 C225.248,51.759 221.577,57.155 218.879,63.366 C216.180,69.579 214.831,76.183 214.831,83.176 C214.831,90.171 216.180,96.736 218.879,102.875 C221.577,109.013 225.248,114.389 229.897,119.002 C234.543,123.616 239.977,127.260 246.199,129.939 C252.420,132.618 259.090,133.957 266.212,133.957 C273.256,133.957 279.909,132.618 286.168,129.939 C292.425,127.260 297.861,123.616 302.470,119.002 C307.080,114.389 310.734,109.013 313.432,102.875 C316.130,96.736 317.480,90.171 317.480,83.176 C317.480,76.183 316.130,69.579 313.432,63.366 Z"/>
<path fill-rule="evenodd"  fill="rgb(0, 0, 0)"
 d="M114.000,119.000 C123.941,119.000 132.000,126.835 132.000,136.500 C132.000,146.165 123.941,154.000 114.000,154.000 C104.059,154.000 96.000,146.165 96.000,136.500 C96.000,126.835 104.059,119.000 114.000,119.000 Z"/>
<path fill-rule="evenodd"  fill="rgb(0, 0, 0)"
 d="M48.000,119.000 C57.941,119.000 66.000,126.835 66.000,136.500 C66.000,146.165 57.941,154.000 48.000,154.000 C38.059,154.000 30.000,146.165 30.000,136.500 C30.000,126.835 38.059,119.000 48.000,119.000 Z"/>
</svg>